<svg viewBox="0 0 64 64" xmlns="http://www.w3.org/2000/svg"><g data-name="Layer 3"><path d="m41 24 7-17-7-6-1.877 1.5A11.4 11.4 0 0 1 32 5a11.4 11.4 0 0 1-7.123-2.5L23 1l-7 6 7 17v3c-2.276 10.873-7.124 22.241-14 34a133.258 133.258 0 0 0 46 0c-6.876-11.759-11.724-23.127-14-34Z" fill="#56453e" class="fill-f2a7b1"></path><path d="M12 61c6.876-11.759 11.724-23.127 14-34v-3L20.1 9.676a4 4 0 0 1 1.1-4.559l3.355-2.876L23 1l-7 6 7 17v3c-2.276 10.873-7.124 22.241-14 34a133.75 133.75 0 0 0 24.49 1.984A134.1 134.1 0 0 1 12 61Z" fill="#e0d7c7" class="fill-e8859b"></path><path d="M23 24h18v3H23zM28 35h-3l4-8h3l-4 8zM36 35h3l-4-8h-3l4 8z" fill="#f1e2ad" class="fill-ed5d5d"></path><path d="m32 27-3.534.589A2.118 2.118 0 0 1 26 25.5a2.118 2.118 0 0 1 2.466-2.089L32 24ZM35.534 27.589 32 27v-3l3.534-.589A2.118 2.118 0 0 1 38 25.5a2.118 2.118 0 0 1-2.466 2.089Z" fill="#f1e2ad" class="fill-f97878"></path></g></svg>